<?xml version="1.0" encoding="UTF-8" standalone="no"?>
<!-- Created with Inkscape (http://www.inkscape.org/) -->

<svg
   width="1080"
   height="675"
   viewBox="0 0 285.74999 178.59375"
   version="1.1"
   id="svg1"
   xml:space="preserve"
   xmlns="http://www.w3.org/2000/svg"
   xmlns:svg="http://www.w3.org/2000/svg"><defs
     id="defs1" /><path
     style="opacity:1;fill:#5f446a;fill-opacity:1;stroke:none;stroke-width:1;stroke-linejoin:miter;stroke-dasharray:none;stroke-opacity:1;paint-order:normal"
     d="m 80.903953,17.377559 c 4.710499,0 11.581221,0.632945 15.840101,-1.610449 C 101.97106,13.013761 104.83791,5.7341006 106.99353,0.53449507 L 89.804662,0.81679998 86.60817,5.2131235 80.903953,17.377559 M 131.21958,0.53449507 V 1.0023572 c 5.10333,2.9912792 11.58198,5.6949826 14.44244,11.2287098 l -5.12474,0.467863 c 1.76203,3.234162 6.62792,5.175647 9.78359,6.873178 1.07551,0.578546 3.09169,1.919255 4.31339,1.04728 1.21324,-0.865934 1.20117,-3.779783 1.2589,-5.113281 0.21877,-5.054384 -4.8632,-12.0760113 -9.34107,-14.4907563 -3.63187,-1.95851962 -11.24238,-0.48085563 -15.33251,-0.48085563 m 31.21431,0 c 0.67299,2.12090273 3.46528,4.76716643 3.00092,7.01794313 -0.44922,2.1774868 -2.81178,4.2474608 -3.99559,6.0822178 -3.00511,4.65754 -6.60466,12.031849 -4.75772,17.771564 2.46001,7.644992 15.22432,0.412422 18.14795,-3.274668 3.29871,-4.160108 3.99,-11.42993 2.25753,-16.368348 -0.74661,-2.128214 -3.03942,-4.6528996 -3.15801,-6.8843721 -0.0735,-1.3836709 1.56354,-3.006984 2.0156,-4.34433683 h -13.51068 m 20.96483,3.27504003 c -2.10444,-1.6451595 -6.26092,-2.5297128 -5.59349,1.8645976 0.26245,1.7279288 2.26912,2.4424163 2.44554,4.2360388 0.26551,2.6991205 -2.18818,7.4338915 0.92493,9.3254885 2.71124,1.647401 6.08417,-1.279612 7.62996,-3.263488 3.23892,-4.156867 1.71734,-8.8923516 -3.07751,-10.7590485 l 3.72709,-4.67862843 c -2.93366,0.0104112 -4.63207,0.55010433 -6.05652,3.27504003 M 193.6482,0.53449507 C 195.82536,4.530604 205.18482,10.383659 209.4883,11.763204 L 215.07893,0.53449507 H 193.6482 m 47.05442,0 c 2.47647,4.25799733 7.28921,10.30690493 12.11302,11.80234393 2.6595,0.824485 6.88076,-0.107913 9.1412,1.31081 3.09813,1.944469 3.40165,6.430201 7.63067,7.281116 6.09715,1.226798 14.1811,-6.7793 14.44244,-12.4406015 -2.12204,0.097618 -4.32741,0.5217767 -5.92888,2.0555675 -0.93441,0.894905 -1.53486,3.008183 -2.97327,3.198495 -2.27636,0.301167 -4.66761,-3.56467 -5.54029,-5.2540625 L 274.24637,4.7452604 261.66746,6.8831406 253.23984,0.81679998 240.70262,0.53449507 M 0.30579353,16.441833 0.77167888,28.138405 C 13.198062,24.908369 24.715632,18.990278 37.110733,15.800692 c 2.664968,-0.68576 11.640831,-3.157818 11.762883,2.051955 0.07395,3.156332 -6.491741,8.258804 -8.391684,10.753621 -5.065499,6.651511 -9.716806,15.773267 -9.893593,24.328867 3.515396,-2.925267 5.134012,-8.041991 7.872957,-11.696569 C 44.296393,33.452778 52.362019,26.488492 56.2052,17.377559 58.152313,12.761582 60.18813,4.9702397 54.348131,2.3142523 49.163238,-0.04379454 42.180535,2.1278243 37.110733,3.8098918 24.82121,7.887315 12.538896,12.274929 0.30579353,16.441833 M 100.47114,76.328282 c 13.44394,1.706269 21.10765,-5.969155 28.88489,-15.907338 7.99849,-10.220899 13.58347,-18.860223 11.51916,-32.282539 -1.58063,-10.277478 -10.85864,-28.50859609 -23.63218,-26.5685521 -9.97297,1.5146853 -13.52469,18.0023981 -8.8493,25.6310271 6.87476,11.217244 21.06908,-3.692301 28.80616,3.526291 3.4061,3.177835 -3.82832,10.783148 -5.82429,13.318572 -6.48363,8.236004 -14.20638,15.516455 -21.58674,22.925277 -2.92775,2.939055 -7.3648,5.683243 -9.3177,9.357262 M 222.06721,36.559936 c -5.99772,1.735154 -8.94596,5.806581 -15.37422,4.67863 l 1.39766,2.807177 v 0.467863 c -6.15322,3.865199 -13.23145,11.334892 -15.8401,18.246653 5.58618,0.689622 9.23492,-6.622212 13.04479,-10.274567 1.23371,-1.182695 3.63231,-3.925128 5.57228,-3.508262 1.66789,0.358408 3.09275,2.799681 4.21813,3.957705 2.83911,2.92146 5.891,5.786203 9.31089,8.016838 9.90042,6.457638 22.80019,9.077625 31.19562,17.722479 6.56488,6.759923 6.03769,16.307462 -1.84485,21.632168 -9.0832,6.13574 -21.80795,8.56704 -32.61197,7.23454 -4.49963,-0.55496 -8.92742,-1.85874 -13.04479,-3.75337 -1.79206,-0.82462 -4.47484,-3.10744 -6.5224,-2.67866 -2.79799,0.58593 -6.15533,4.32037 -8.38593,6.0981 v 0.46786 c 16.68226,14.27893 41.9104,11.43867 58.70155,-1.00865 8.22738,-6.09898 16.38589,-18.099968 13.62211,-28.934574 -1.93659,-7.591844 -8.49066,-11.332438 -15.01976,-14.61927 -11.57127,-5.825133 -24.10888,-10.487751 -34.9414,-17.663265 l 8.85182,-3.27504 0.93176,4.21077 c 2.34599,-1.158752 2.81215,-4.167479 5.17363,-5.077189 2.826,-1.088658 6.30351,-0.799928 9.26882,-1.084461 8.49218,-0.814876 17.08731,-1.32416 25.62369,-1.32416 6.30089,0 13.22383,0.779295 16.03494,-6.548281 0.71771,-1.870823 -1.15953,-2.979013 -2.52464,-3.807882 -3.77496,-2.292083 -7.76842,-4.236067 -11.64676,-6.342492 C 259.28617,17.870822 251.13847,13.846113 243.03205,9.7762292 238.07508,7.2875377 232.31307,4.0257476 226.72606,3.4229001 216.31892,2.2999602 209.30882,10.253244 213.6234,20.184737 c 2.43756,5.610841 5.92184,10.775922 8.44381,16.375199 M 65.529738,3.8095351 c -1.329098,3.2059195 -4.305686,6.8425519 -4.758789,10.2857589 -0.330611,2.512349 9.847678,9.803889 12.115179,8.821174 1.443082,-0.62542 2.309856,-2.831864 2.995177,-4.135321 0.906172,-1.723517 2.463741,-4.026022 2.059098,-6.075364 C 77.213169,9.022633 68.883677,4.5820626 65.529738,3.8095351 M 168.95628,9.891752 c 1.97636,2.293883 6.64247,7.398711 6.06441,10.742072 -1.04392,6.037926 -20.76226,9.577581 -14.34178,-0.916951 1.0127,-1.655296 2.22726,-3.163529 3.43231,-4.678629 1.49875,-1.884359 2.88726,-3.732337 4.84506,-5.146492 m 14.44244,0 c 0.61909,0.33385 1.29107,0.638672 1.85708,1.065685 4.74624,3.580704 -4.6128,5.531885 -1.85708,-1.065685 M 160.57035,121.71098 c 5.54033,-0.95802 11.42662,-4.36697 16.30599,-7.08293 9.95647,-5.54199 21.91056,-11.57949 28.81226,-20.988845 4.16823,-5.682713 7.41053,-16.29631 2.22015,-22.413736 -5.95249,-7.015663 -20.0448,-6.881991 -28.2371,-9.805264 -2.99839,-1.069915 -8.8864,-3.148621 -8.88741,-7.081476 -7.3e-4,-2.837609 2.62697,-6.110621 4.04773,-8.421535 4.41098,-7.174601 13.85658,-20.100655 23.0092,-20.959965 2.4676,-0.231676 4.18995,1.155264 5.42671,3.182618 0.58823,0.964268 1.32997,3.359295 2.86792,2.921987 5.10261,-1.450877 3.78543,-13.294556 1.79632,-16.489654 -5.25533,-8.4416214 -15.93658,-0.441005 -20.80631,4.227387 -8.97895,8.607717 -15.86245,18.971934 -19.72105,30.86053 -1.5133,4.662579 -3.01253,11.086218 -1.63023,15.907339 2.95987,10.323217 17.74596,11.420718 26.47602,13.404491 2.62747,0.597044 10.10936,1.287888 11.0202,4.462382 0.40445,1.409625 -1.2417,2.65643 -2.17055,3.41402 -2.89493,2.36121 -6.17024,4.298559 -9.31553,6.298104 -5.10513,3.245468 -10.44039,6.087455 -15.8401,8.798777 -2.39407,1.20211 -6.26328,2.22982 -8.12318,4.16204 -1.41539,1.47044 -1.62149,4.3703 -2.32437,6.24647 -1.27987,3.41636 -3.30323,6.1594 -4.92667,9.35726 m 101.09711,-90.297535 -21.89661,1.342578 -9.65561,1.175441 -3.50421,-5.793059 -8.73679,-17.310926 c 11.00178,0.902414 22.90897,8.567896 32.61198,13.452499 3.42237,1.72286 9.14342,3.785038 11.18124,7.133467 M 125.62894,17.377559 c -1.69298,0.655862 -3.37757,1.34996 -5.12473,1.852676 -2.13292,0.613713 -10.05468,1.410128 -7.81616,-3.207163 2.4577,-5.069376 10.91836,-2.618407 12.94089,1.354487 M 74.847444,38.431388 C 65.320866,50.486568 61.33677,63.923935 61.33677,79.135459 h 2.795312 c 0.124988,-15.161222 11.027697,-29.711492 21.43108,-39.749926 3.528845,-3.405057 7.354095,-6.505091 11.180892,-9.562319 1.751427,-1.399219 4.479136,-2.764015 5.309516,-4.966703 0.85035,-2.255688 0.10485,-5.177546 -0.18478,-7.478952 -10.34093,0.848201 -21.121573,7.352549 -30.748428,11.030158 -7.12637,2.722395 -15.470913,4.1224 -21.896611,8.313591 -4.887413,3.187843 -10.199871,6.566028 -9.450713,12.938789 0.167543,1.425208 -0.280625,4.278047 1.599683,4.710396 1.623256,0.373259 3.65535,-1.114425 5.05572,-1.758815 5.177058,-2.382213 7.833236,-5.541474 12.122003,-8.735244 4.123045,-3.070364 11.324001,-4.411501 16.297,-5.445046 M 23.600059,60.888805 H 23.134174 C 19.843013,52.168808 9.8919392,42.478299 0.77167888,40.30284 L 0.30579353,56.210173 0.77167888,56.678035 C 2.5689635,56.105941 4.6265549,53.368136 6.3709302,53.647393 c 2.6033578,0.416778 5.2234448,3.61516 6.9796518,5.370318 5.087997,5.084947 10.131961,9.934236 13.510675,16.374839 3.2322,-1.051658 2.537002,-6.101514 2.196061,-8.889391 -1.10246,-9.014787 -4.63511,-17.993669 -4.516862,-27.136045 0.03112,-2.405322 0.602413,-6.267375 3.720253,-6.289435 2.110203,-0.01492 6.740574,3.809454 7.609822,0.179418 1.727084,-7.212409 -9.561776,-16.542068 -14.351858,-8.817918 -6.467149,10.428467 1.605758,25.493783 2.081386,36.449626 M 135.41254,140.89336 c 4.31562,-1.83212 8.07885,-5.77192 11.64714,-8.77423 5.25578,-4.42217 11.47819,-9.88541 14.75734,-16.02251 11.91758,-22.304264 5.19304,-53.690941 -6.83729,-74.390191 l 7.45416,1.403588 c -0.95865,-4.771408 -6.94025,-8.848002 -10.24947,-12.164434 -1.06784,-1.070169 -2.52263,-3.092996 -4.13079,-3.311864 -2.38998,-0.325268 -4.62295,8.929702 -4.39355,10.797669 0.5248,4.273347 4.48395,9.094152 6.19455,13.100164 4.8074,11.258338 8.70872,23.088408 11.18304,35.089716 0.95254,4.620172 2.60756,10.249667 1.63887,14.971602 -1.89368,9.23089 -14.30133,17.83612 -21.20749,23.2946 -2.16158,1.70845 -6.64576,3.81932 -7.85857,6.33274 -1.04416,2.16392 1.69159,7.12889 1.80206,9.67315 M 97.20994,88.492712 c -1.371915,1.314021 -3.861327,2.84808 -4.508232,4.697039 -0.767754,2.194401 2.544733,4.55503 4.508232,4.352288 3.46272,-0.357547 8.26587,-5.822998 11.18125,-7.800248 10.69474,-7.253305 25.82558,-12.454609 30.28254,-25.577948 -3.03704,-0.357838 -5.85329,2.067423 -8.38593,3.544355 -6.04057,3.522632 -11.98277,7.69803 -18.63541,9.986843 -10.20698,3.511679 -19.822609,-1.891074 -26.268606,-9.788289 -1.81535,-2.224061 -6.233342,-7.594499 -4.180384,-10.67421 2.604276,-3.906772 9.504328,-4.502584 13.677113,-5.106411 11.220497,-1.623701 31.372147,-4.794155 32.146097,-19.77696 -4.35142,0.674295 -7.22235,5.590838 -11.64713,7.004579 -10.78997,3.447434 -24.693655,0.941065 -33.5017,9.45185 -14.759421,14.261313 0.05819,34.687608 15.33216,39.687112 m 97.83592,-35.557577 c -3.68526,-1.540812 -10.14233,-3.687105 -10.48098,-8.421529 -0.17832,-2.492861 1.41516,-5.131057 2.09505,-7.485806 -2.73349,-0.0418 -4.06409,2.943846 -5.22648,5.146491 -2.2045,4.177312 -3.70401,9.043463 -1.49686,13.568021 2.56025,5.24839 9.10391,7.697609 12.24925,2.339316 1.00321,-1.709014 2.0758,-3.321192 2.86002,-5.146493 m 70.81457,23.861009 c 7.59953,-2.596198 8.0357,-13.216619 4.65885,-19.182377 l 2.79531,-0.935732 c -1.19076,-0.907405 -2.77936,-0.723892 -3.90934,-1.685888 -2.18555,-1.860602 -3.45798,-5.068905 -5.45042,-7.201698 -4.56439,-4.88595 -11.4828,-7.213799 -18.12747,-6.418313 -4.52254,0.541424 -16.94975,2.985767 -13.29786,10.152562 3.25474,6.387405 15.37438,7.952607 21.68379,8.386499 2.12658,0.146248 5.51443,-0.887324 7.40529,0.07325 2.93109,1.489088 4.25681,7.294149 4.74151,10.261572 0.37425,2.291127 -0.0661,4.305232 -0.49966,6.550086 M 260.7357,57.613727 c -2.68703,0 -5.26538,-0.03818 -7.92006,-0.507211 -3.04975,-0.538816 -10.27678,-2.277691 -10.84227,-6.061643 -0.57582,-3.853092 6.84599,-7.096118 9.91013,-6.141773 2.75826,0.85908 4.47283,4.353217 5.90805,6.628412 1.23157,1.952359 2.50427,3.791368 2.94415,6.082215 m -64.29219,-12.164436 0.46589,0.467863 -0.46589,-0.467863 m -30.74842,1.871453 0.46588,0.467861 -0.46588,-0.467861 m 111.81247,0.467861 0.46589,0.467861 -0.46589,-0.467861 m 2.32943,4.678629 0.46588,0.467861 -0.46588,-0.467861 m -170.97991,3.742899 0.46588,0.467861 -0.46588,-0.467861 m 90.38174,7.95367 c 7.0462,2.800764 14.87281,5.561827 18.16954,13.100162 1.84646,-1.066739 6.15258,-3.358298 6.52527,-5.65659 0.30989,-1.911045 -1.81381,-4.253106 -2.93839,-5.571757 -3.06975,-3.599558 -11.28696,-9.93642 -16.54576,-8.722242 -2.38122,0.549788 -4.25832,4.828777 -5.21066,6.850427 m 85.72291,-7.017937 c -11.82039,11.258948 -16.02126,29.030868 -23.76015,43.043384 10.56593,-0.551637 12.75574,-17.45274 16.98826,-24.79674 1.84608,-3.203172 5.15847,-5.674396 6.75895,-8.889392 1.08018,-2.169781 0.92878,-7.165507 0.013,-9.357252 M 0.77167888,57.613767 C -2.9116527,71.345022 11.60392,76.656049 19.872977,84.281952 l -5.590624,1.871444 6.988279,2.877941 13.97656,4.140007 C 34.9053,89.238729 32.978567,82.75595 30.291048,79.785982 28.380335,77.674459 25.289622,76.38139 23.134174,74.421807 16.455069,68.349652 8.6103219,62.098835 0.77167888,57.613767 m 139.76560112,2.339316 0.46588,0.467861 -0.46588,-0.467861 m -86.654675,36.96116 h 0.465886 c 0.239329,11.282167 11.200043,12.214257 15.928897,2.807181 4.281614,-8.5174 0.453466,-18.493561 0.842974,-27.603912 -7.403948,2.104679 -5.517552,12.713727 -4.289307,18.246655 0.376569,1.696328 1.649643,4.289771 0.863824,5.982221 -2.006784,4.322072 -7.56143,0.002 -8.618516,-2.707183 -1.040219,-2.666291 0.04983,-5.265916 0.317421,-7.95367 0.459806,-4.618218 0.684044,-10.456197 -0.386441,-14.971606 -9.082013,2.682613 -1.278736,18.122402 -8.404628,23.491697 -5.090613,3.835718 -9.728231,0.971956 -9.728231,-5.245053 0,-4.117651 2.528386,-7.726868 3.31404,-11.696568 0.296486,-1.498056 1.26647,-6.156195 -1.514486,-5.709307 -2.930347,0.470907 -6.920965,4.359723 -6.328995,7.538886 0.295149,1.585083 1.627794,2.525615 1.589258,4.254449 -0.129915,5.828068 -3.513753,10.90029 -1.399093,16.841257 3.450125,9.69283 14.43716,2.86706 17.347397,-3.275047 m 153.742165,4.678627 8.38593,2.80718 c 3.21831,-8.881455 12.20579,-21.973771 22.82838,-21.502553 3.07828,0.136548 5.24704,1.986298 7.92005,3.255899 1.52923,-10.761437 -7.48365,-18.990747 -17.70364,-13.859716 -9.59021,4.814849 -19.81404,18.468025 -21.43072,29.29919 M 72.983903,75.39255 73.449788,75.860421 72.983903,75.39255 m 11.647133,11.228718 c -1.957996,3.731606 -4.257068,9.755352 -3.627509,14.035882 0.48026,3.26544 2.835143,6.37402 4.158098,9.35725 2.524394,5.69246 4.670619,11.54906 5.392195,17.7788 0.450788,3.89186 -2.392388,5.55142 -3.5247,8.88939 -1.203024,3.54641 -1.000022,8.43467 -1.000428,12.16444 9.125981,-7.39531 9.317707,-22.00044 9.317707,-32.75041 11.930251,0.24728 21.351831,-2.00034 27.021351,-14.03589 2.25743,3.09418 4.24843,6.5741 7.92005,8.17209 13.09677,5.70004 19.71157,-11.625365 20.62514,-21.272247 0.35315,-3.729191 0.0299,-10.442369 -3.47654,-12.790412 -1.83904,-1.231524 -2.56971,1.145409 -3.01135,2.497788 -1.03081,3.156437 -2.80734,7.567925 -1.3103,10.760495 0.56234,1.199238 2.2582,3.00048 1.80888,4.430968 -0.47769,1.520842 -3.04533,2.11983 -4.38635,2.367844 -4.14494,0.766558 -10.86313,-1.963141 -11.18268,-6.798812 -0.10012,-1.51515 2.80457,-9.086382 -0.0603,-9.005648 -1.85913,0.05241 -2.96278,2.537299 -3.82557,3.859156 -2.56627,3.931703 -4.86485,8.375176 -8.23245,11.67779 -6.23523,6.114928 -17.924807,7.569698 -24.683295,1.373272 -3.368548,-3.088409 -4.438459,-7.966375 -7.921849,-10.711746 M 248.15679,75.860421 c 0.58486,7.441729 2.63467,14.206802 6.52239,20.585961 1.60449,-0.792622 3.08798,-2.187538 3.0926,-4.168886 0.005,-2.039887 -2.55148,-3.596681 -3.57287,-5.188367 -2.38325,-3.713941 -1.39135,-9.71952 -6.04212,-11.228708 M 8.225844,77.731866 8.6917295,78.199727 8.225844,77.731866 M 2.6352201,79.135459 3.1011055,79.60332 2.6352201,79.135459 M 3.5669908,79.60332 4.0328761,80.071182 3.5669908,79.60332 m 181.6952792,0 -0.46589,14.971607 c 1.93683,-0.615491 6.09482,-2.16914 6.79382,-4.297396 0.75872,-2.310117 -1.61413,-7.065624 -1.66907,-9.738488 L 185.26227,79.60332 M 0.77167888,81.942636 c -0.70017556,2.723667 -1.44581335,9.216948 0.31849862,11.513907 2.5520318,3.322485 9.1959275,5.465181 12.7262905,7.824417 11.715647,7.82923 30.295335,19.93146 27.021348,35.86949 l 0.465885,0.46786 6.056509,-3.7429 c -4.919569,8.87402 -11.548173,17.94533 -19.101298,24.71551 -3.298345,2.95645 -7.906305,6.05945 -12.578903,5.04504 -6.0333663,-1.30981 -8.4430712,-7.76358 -13.0447889,-11.04603 -1.1416708,3.91535 1.1078642,8.0376 3.2744979,11.2287 5.383092,7.92844 14.560061,13.88766 24.212736,9.97891 14.802772,-5.99421 22.241567,-25.34864 30.947577,-37.58281 2.576929,-3.62124 9.344927,-14.75744 14.840037,-12.94962 4.451068,1.46435 2.010694,9.9307 1.599681,13.41748 -0.984709,8.3537 0.354568,17.32908 3.088645,25.2646 0.938304,2.72336 1.852323,6.52793 4.498527,7.95366 -0.564613,-7.18477 -1.850084,-14.27531 -1.355956,-21.52169 0.769342,-11.28238 3.244506,-23.71998 -1.005105,-34.62185 -2.900835,-7.44176 -9.122689,-9.9809 -15.808466,-5.24721 -7.090939,5.02054 -15.0902,15.80296 -18.169527,23.96173 H 48.291982 C 50.07456,123.82185 55.654819,119.27916 60.405,112.35372 l -13.510676,8.42153 C 44.988501,115.7996 40.311538,111.50252 36.723934,107.69351 26.784768,97.140924 14.205126,87.559194 0.77167888,81.942636 M 221.60133,96.914243 c -0.56473,1.362179 -2.16924,3.532577 -1.66871,5.048297 1.3148,3.98144 9.19027,4.24777 12.38407,3.52306 6.43942,-1.46117 13.13163,-6.740756 13.88884,-13.71785 0.75271,-6.93565 -8.37678,-8.992451 -13.37947,-6.228422 -4.95984,2.740361 -1.74673,7.942767 -0.6068,11.842786 0.50192,1.717141 0.93075,4.588716 -0.96411,5.694846 -2.70612,1.5797 -7.34601,-5.08192 -9.65382,-6.162717 m -53.57681,-2.807177 10.71536,-1.871445 -8.38594,8.421529 c 6.63882,-2.109757 10.56925,-6.869854 12.11302,-13.568021 -6.10215,-2.322722 -13.01582,0.771448 -14.44244,7.017937 m 69.88279,1.403593 c -0.25608,-1.11163 -0.61079,-2.177216 -0.91308,-3.275759 -2.04067,-7.416357 6.67796,-0.564718 0.91308,3.275759 m 47.52031,58.014991 c 0,-3.44424 1.21762,-9.76687 -1.07987,-12.55288 -3.92354,-4.75777 -9.26214,-8.40204 -13.30002,-13.17957 -1.31409,-1.55479 -4.09137,-4.28181 -3.72638,-6.54286 0.91406,-5.66253 14.24326,-3.75013 18.10627,-3.75013 V 106.2715 l -10.71537,-0.46786 c 3.26603,-3.27088 5.95351,-5.57423 10.71537,-5.61435 0,-6.372775 0.2314,-14.676987 -8.85182,-10.116095 -4.58461,2.30203 -7.69729,7.037808 -9.8972,11.519675 -9.98446,20.34152 1.59102,39.79499 18.74902,51.93278 M 0.30579353,103.46433 c 0.19853718,2.93871 -1.01538694,7.54357 0.5492845,10.13919 1.50250547,2.49249 6.29537177,2.77822 6.93795277,5.78836 0.5157125,2.41583 -1.5175342,6.50421 -2.1644255,8.86918 -2.0681079,7.56079 -2.3952609,15.3047 -0.4410812,22.92528 0.8580244,3.34598 2.5920247,7.38652 6.2995169,8.23706 8.021309,1.84017 18.221589,-10.21767 19.793295,-17.12646 1.775121,-7.80294 -0.05468,-15.33881 -5.101372,-21.52169 -1.923924,-2.35706 -4.845344,-4.1913 -6.524551,-6.68365 -1.219104,-1.80945 0.738912,-3.15491 0.572291,-4.97068 -0.188967,-2.0593 -3.402217,-3.48458 -5.012581,-4.25301 l -2.894527,4.00211 -12.01380247,-5.40569 M 253.28153,107.67509 c -5.98793,10.68251 -0.0418,22.33369 2.14323,33.21827 0.96029,4.78376 3.22764,11.04089 -0.18659,15.35319 -4.65465,5.87897 -14.02655,3.55546 -15.68661,-3.65662 -0.40916,-1.77761 1.20424,-8.4248 -1.67158,-8.00926 -4.5297,0.65453 -9.18238,8.22797 -12.55158,11.07888 -3.10793,2.62984 -6.38144,4.69409 -10.24947,5.97392 -2.09019,0.6916 -5.02942,0.69036 -6.88907,1.8007 -3.00181,1.79229 -6.68138,7.85022 -8.95104,10.67745 8.39553,3.58093 18.68188,0.32246 25.15782,-5.65803 2.49663,-2.30563 5.6048,-7.9976 8.8662,-9.01611 1.16167,-0.36278 1.5968,0.63823 1.79847,1.58517 0.75593,3.54963 1.44692,6.9613 4.32959,9.49553 9.65145,8.48481 19.97773,-4.15135 20.41302,-13.71748 h 0.93178 c 0.70192,8.07297 8.13234,15.8271 16.30598,16.33115 2.96916,0.1831 5.59303,-1.06213 8.38594,-1.82741 v -13.56802 c -3.23507,1.02629 -5.72445,2.86992 -9.31772,2.18011 -6.14997,-1.18065 -9.75416,-7.90474 -11.2995,-13.40882 -3.60544,-12.84147 -3.74654,-27.04337 -10.59711,-38.83262 h -0.93176 m -8.38593,7.48581 c -2.69432,3.54967 -2.05629,7.76008 -0.45908,11.69656 0.62442,1.53892 2.34587,3.8147 1.87757,5.54506 -0.81473,3.01041 -4.75235,0.62089 -5.73334,-0.87544 -2.607,-3.97659 -1.61058,-10.43811 -3.60521,-14.96259 h -0.93177 c -2.53057,4.84926 1.01491,8.69618 0.17579,13.56802 -0.67631,3.92658 -5.75413,7.54309 -8.00776,2.79995 -2.1142,-4.44968 0.45726,-9.33778 -1.01985,-14.02865 -6.82023,2.34941 -2.52742,6.38924 -2.33841,10.76119 0.15277,3.53375 -0.67517,7.84586 2.00193,10.69119 4.37724,4.65224 9.40244,-1.42726 10.58596,-5.54506 h 0.46588 c 1.39038,7.21537 8.90497,6.48016 10.81565,0 1.75045,-5.93676 -1.38573,-14.19015 -3.82736,-19.65023 m -42.86146,0.46786 -6.52239,19.18237 8.85182,1.87146 6.05651,-18.24666 -8.38594,-2.80717 m -103.892431,3.74291 c 0.05598,2.7098 1.414744,5.31325 1.34374,7.95367 -0.152454,5.66886 -2.339518,9.98744 -1.134162,15.90733 1.027726,5.04749 5.297383,8.65475 3.517503,13.56803 2.4041,0.19212 4.99776,1.24377 7.41069,0.86461 2.29567,-0.36075 2.91704,-3.11989 5.17541,-3.80139 7.27505,-2.19542 19.29646,-1.83158 19.03409,-12.5027 -0.042,-1.70401 -0.47784,-3.52107 -0.96917,-5.14649 -0.59566,-1.97052 -1.52184,-4.00468 -2.87476,-5.57067 -5.13026,-5.93819 -14.71208,-4.0678 -21.25386,-7.52949 l 3.2612,-1.40359 v -0.93573 c -3.91393,-1.472 -9.35693,-1.84881 -13.510681,-1.40358 m 62.428641,26.66818 v 0.46786 c -4.68251,2.15396 -6.59816,5.80368 -6.98828,10.76085 3.5427,-1.13565 6.73091,-3.96777 9.78359,-6.07067 7.13594,-4.91572 19.14044,-9.36517 19.56718,-19.19393 -5.58119,1.01148 -10.79737,8.75816 -16.77187,7.11469 -1.85811,-0.51112 -5.89368,-2.3354 -5.56258,-4.77032 0.78846,-5.79854 7.90918,-3.95242 10.22144,-0.94078 h 0.93177 c 0.70239,-1.6965 1.67366,-3.34338 2.08282,-5.14649 1.11539,-4.91544 -2.50236,-8.23252 -7.20756,-6.32446 -8.93878,3.62487 -20.68129,20.05382 -6.05651,24.10325 M 13.816468,122.17884 c 3.6661,1.06062 14.063635,6.21196 13.938095,10.76085 -0.14207,5.14783 -8.767974,11.75054 -13.006324,13.46983 -2.033181,0.82476 -5.3998762,1.56424 -6.9228549,-0.5657 -2.3371593,-3.26861 0.5805431,-10.08613 1.7761878,-13.37199 1.2756681,-3.50579 2.7902561,-6.85661 4.2148961,-10.29299 m 90.401892,8.71106 c 6.95756,-2.50316 12.4307,11.72329 5.06112,14.80267 -9.688913,4.04848 -12.715209,-12.04893 -5.06112,-14.80267 m -55.926378,1.58193 -0.465886,0.46786 0.465886,-0.46786 m 159.798668,0 0.46589,0.46786 -0.46589,-0.46786 m -91.77941,12.16443 -1.86354,-11.69657 c 3.31676,0.49007 15.21292,1.40441 15.81206,5.62591 0.62291,4.38891 -11.18247,5.55313 -13.94852,6.07066 m -68.485144,-11.22871 -0.465886,0.46786 0.465886,-0.46786 m 134.640864,10.29299 h -0.46589 c -4.32934,-3.23848 -9.56128,7.50759 -11.74528,10.29298 -9.99427,12.74634 -28.2583,19.80673 -43.69507,23.39314 v 0.46786 c 7.78976,0 18.11418,1.80926 25.6237,-0.23319 8.6447,-2.35123 19.72017,-15.30064 22.36249,-23.62781 3.51426,4.13803 6.32816,8.80771 10.25126,12.61387 1.80629,1.75247 3.8347,3.35272 6.05472,4.54543 5.85061,3.14324 10.11273,-1.33341 12.8992,-6.39845 4.68385,-8.51397 6.04011,-30.46458 -9.17211,-27.91943 -1.78708,0.299 -3.50654,1.04835 -5.12474,1.84041 -2.58433,1.26493 -5.0738,2.85916 -6.98828,5.02519 m 30.74843,-4.67864 0.46588,0.46787 -0.46588,-0.46787 m -73.04478,1.05378 c -1.84636,0.72212 -5.13752,7.71317 -4.23035,9.52982 0.82096,1.644 3.6099,2.76583 5.0629,3.78946 1.22393,0.86226 3.2824,3.05883 4.94823,2.58806 2.18281,-0.61687 5.23296,-7.38489 4.31305,-9.43307 -0.84478,-1.88091 -3.43629,-3.15528 -5.06831,-4.25265 -1.24873,-0.83963 -3.38251,-2.86422 -5.02552,-2.22162 m -65.323166,5.4963 c -5.446036,3.88636 -11.259466,7.19651 -17.237757,10.17711 -3.11511,1.55311 -6.971854,2.49336 -9.741891,4.6252 -8.006401,6.16177 -11.685399,15.35358 -22.87008,17.01237 v 0.46786 c 14.351985,0 27.518207,-4.80654 39.600252,-12.36333 3.293086,-2.0597 9.739658,-4.80027 11.627355,-8.30892 1.194628,-2.22043 -0.401692,-9.33768 -1.377879,-11.61029 M 198.30706,159.14 c -4.47997,-0.50053 -10.23236,-6.11371 -11.64713,-10.29297 7.80484,-2.20259 13.22862,1.70739 11.64713,10.29297 m 77.80284,-9.82511 0.4659,0.46786 -0.4659,-0.46786 m 1.39766,0.46786 0.46589,0.46786 -0.46589,-0.46786 m -55.44035,1.40359 0.46588,0.46787 -0.46588,-0.46787 m -88.05232,0.46787 0.46588,0.46786 -0.46588,-0.46786 m -47.986198,0.46786 c 0,2.76237 -0.863753,7.30594 0.478831,9.78144 3.129933,5.77105 15.147647,7.74614 20.951897,8.6569 14.72595,2.31069 27.14888,-1.01415 40.99791,-5.65009 5.50746,-1.84362 11.719,-3.35319 16.77187,-6.23818 v -0.46786 c -3.36885,-0.93018 -7.72687,0.38704 -11.18125,0.80216 -6.64061,0.79801 -13.36924,1.03701 -20.03306,1.49528 -10.61351,0.7299 -22.78603,0.88623 -33.07786,-2.02994 -5.281133,-1.4964 -9.887175,-4.25036 -14.908338,-6.34971 m -9.938884,8.57748 0.310586,0.15595 -0.310586,-0.15595 m 152.965682,4.52268 c -3.79803,6.53487 -2.52858,9.59613 4.65885,12.63229 4.10523,-6.25125 2.96539,-10.37925 -4.65885,-12.63229 M 74.381559,177.38666 v 0.46786 c 9.388531,0 19.1845,1.89937 25.623691,-6.55008 l -9.317705,-3.22016 -5.590624,3.37575 z"
     id="path1" /></svg>
