<?xml version="1.0" encoding="UTF-8" standalone="no"?>
<!-- Created with Inkscape (http://www.inkscape.org/) -->

<svg
   width="1080"
   height="1080"
   viewBox="0 0 285.74999 285.75"
   version="1.1"
   id="svg1"
   xml:space="preserve"
   inkscape:export-filename="bitmap.png"
   inkscape:export-xdpi="96"
   inkscape:export-ydpi="96"
   sodipodi:docname="logo.svg"
   xmlns:inkscape="http://www.inkscape.org/namespaces/inkscape"
   xmlns:sodipodi="http://sodipodi.sourceforge.net/DTD/sodipodi-0.dtd"
   xmlns="http://www.w3.org/2000/svg"
   xmlns:svg="http://www.w3.org/2000/svg"><sodipodi:namedview
     id="namedview1"
     pagecolor="#505050"
     bordercolor="#ffffff"
     borderopacity="1"
     inkscape:showpageshadow="0"
     inkscape:pageopacity="0"
     inkscape:pagecheckerboard="1"
     inkscape:deskcolor="#505050"
     inkscape:document-units="mm"><inkscape:page
       x="0"
       y="0"
       width="285.75"
       height="285.75"
       id="page2"
       margin="0"
       bleed="0" /></sodipodi:namedview><defs
     id="defs1" /><path
     style="display:inline;fill:#a57b02;stroke:none;stroke-width:2.0158"
     d="m 269.08171,183.60539 -2.73076,-0.85336 c -6.29835,19.36285 -16.30142,37.10845 -30.22423,52.05496 -25.79842,27.69533 -64.17711,44.49769 -102.21726,42.83195 C 114.45644,276.78712 95.667872,272.27762 78.099714,263.7771 64.871375,257.37645 52.795436,248.41594 42.429259,238.04976 31.506936,227.12744 21.768698,214.04723 15.561321,199.81922 8.3698505,183.33559 3.8000075,166.29914 3.0107403,148.27627 2.2909193,131.83932 4.7039326,114.80838 10.224788,99.293404 16.368154,82.029015 25.525377,66.15212 37.850088,52.529272 63.171824,24.540457 101.08136,7.2274956 139.02962,8.1570473 c 19.60093,0.4801394 38.48151,4.8296097 56.32178,13.0212617 14.42915,6.625396 27.3917,16.416014 38.57186,27.596177 12.64603,12.646022 22.72355,28.399164 29.18491,45.057406 0.6345,-0.173562 2.22395,-0.502442 2.4213,-1.233031 0.24252,-0.897923 -0.85893,-2.55093 -1.19234,-3.375113 -1.32189,-3.267692 -2.93869,-6.407257 -4.51386,-9.557628 C 252.8855,65.790626 243.10649,53.593158 232.04587,42.803466 203.00143,14.470494 160.05023,1.2408699 120.08503,6.4958891 98.349258,9.3539162 77.09457,17.236164 59.155119,29.928125 42.799702,41.499405 28.596303,56.392725 18.657914,73.863265 7.0665338,94.239591 1.1314267,116.40079 0.10931174,139.74267 -1.5224816,177.00769 14.725076,215.78151 41.575899,241.45649 c 12.339602,11.79921 26.479731,21.28125 42.155991,28.04485 13.339029,5.75519 27.98575,9.51912 42.49733,10.51847 19.11622,1.31644 37.9441,-0.91331 56.15109,-6.98229 17.55771,-5.85255 33.67371,-15.66334 47.44681,-27.96191 18.4825,-16.50371 31.73447,-37.95241 39.25459,-61.47022 M 71.272825,92.712108 c -5.427108,0.84773 -8.885373,7.685172 -12.019456,11.701452 -8.511502,10.90728 -17.103464,21.75773 -25.699584,32.59835 -2.611924,3.29393 -5.213849,6.59606 -7.814431,9.89899 -0.655119,0.83205 -2.650849,2.61074 -2.517152,3.73686 0.114538,0.96482 1.900606,1.23329 2.65187,1.15455 2.291982,-0.24022 4.030787,-2.55273 6.485537,-2.93909 5.356824,-0.84319 8.878894,3.40639 9.958499,8.11733 2.580338,11.25951 1.79499,22.94764 3.709099,34.30507 0.735893,4.36646 1.59608,10.22033 6.471702,11.77149 2.243034,0.71363 5.446016,0.75757 7.46072,-0.67677 2.530185,-1.8013 4.58984,-5.43122 6.534252,-7.85194 8.895776,-11.07489 17.947454,-22.02468 26.829745,-33.11039 3.175724,-3.96352 7.460754,-12.1193 13.448994,-11.38617 7.04407,0.86238 8.25254,7.38943 9.09183,13.26357 1.43267,10.02728 1.09011,20.23173 2.95949,30.20896 0.76901,4.10438 1.6538,8.99416 6.03989,10.67924 2.28539,0.87801 5.58739,0.88618 7.67774,-0.55822 1.26311,-0.87282 2.18251,-2.45864 3.14703,-3.63549 1.9561,-2.38671 3.89332,-4.78899 5.85843,-7.16822 9.06423,-10.97437 17.90189,-22.13599 26.96617,-33.11037 3.41212,-4.13115 6.86591,-10.5028 13.01376,-10.23362 5.95418,0.2607 8.04975,5.54731 8.88864,10.57496 1.76295,10.56536 1.20713,21.40348 3.22907,31.91567 1.05775,5.49942 2.08833,11.45902 8.70427,12.23964 1.00582,0.11874 2.09384,-0.0774 3.0721,-0.31499 2.41508,-0.58668 3.47604,-2.23885 4.99215,-4.07375 2.07162,-2.50721 4.14804,-5.01115 6.23005,-7.50957 8.79475,-10.55365 17.49073,-21.1897 26.2835,-31.745 2.74169,-3.29126 5.50804,-6.56761 8.20082,-9.89898 0.56137,-0.69447 2.62174,-2.45112 2.36465,-3.41093 -0.15199,-0.56752 -1.04741,-1.28264 -1.64839,-1.14756 -0.70537,0.15864 -1.39405,0.88492 -2.04806,1.21196 -1.2836,0.64187 -2.68431,0.95333 -4.09613,1.15007 -5.49067,0.76501 -10.62552,-1.88023 -11.96679,-7.53184 -2.6816,-11.29921 -2.14574,-23.18155 -3.73504,-34.64642 -0.7109,-5.12857 -1.91634,-11.103928 -7.68023,-12.642759 -5.11782,-1.366356 -7.85173,1.848923 -10.75234,5.474535 -1.85512,2.318834 -3.70345,4.649284 -5.52115,6.997554 -8.42429,10.88326 -17.16395,21.52402 -25.56144,32.42769 -3.7613,4.88387 -7.8976,10.78473 -14.82818,10.04002 -6.5611,-0.705 -7.33443,-8.51885 -8.04383,-13.62413 -1.33888,-9.63526 -1.14835,-19.40047 -2.75066,-29.01424 -0.7949,-4.76936 -1.76918,-9.566014 -6.78474,-11.526551 -7.60376,-2.972233 -12.00947,5.972261 -15.9066,10.843851 -8.64389,10.80531 -17.05937,21.79307 -25.70326,32.59835 -3.13221,3.91545 -6.18347,10.28258 -11.981141,9.88371 -5.960211,-0.41002 -8.11094,-5.41368 -8.975038,-10.56639 C 83.745236,126.66397 84.091168,115.9528 82.352813,105.4376 81.368492,99.48349 79.113909,91.487342 71.272825,92.712108 M 266.89932,115.4634 c -0.69105,0.30601 -0.88997,1.28391 -1.13283,1.92122 -0.54859,1.43964 -1.26024,2.80138 -2.09375,4.09613 -2.3996,3.72744 -5.5617,6.73499 -9.4395,8.89852 -1.07901,0.602 -4.78102,1.43792 -4.51556,3.04775 0.13265,0.8049 0.95806,1.07525 1.61412,1.33376 1.40128,0.55217 2.82357,1.21985 4.09613,2.02844 4.01727,2.55262 7.29118,6.02696 9.42912,10.29234 0.52408,1.04558 1.33291,4.64915 3.02245,3.86435 0.80957,-0.37602 1.00124,-1.40711 1.30532,-2.15763 0.57495,-1.41909 1.30295,-2.80504 2.12485,-4.09612 2.29421,-3.60399 5.56454,-6.70538 9.37773,-8.66003 1.20695,-0.61868 5.19184,-0.99695 5.06261,-2.77236 -0.10507,-1.44273 -4.10127,-2.28533 -5.23328,-2.92973 -4.50553,-2.56475 -8.51483,-6.45757 -10.67793,-11.23868 -0.4949,-1.09391 -1.15451,-4.41844 -2.93948,-3.62796 z"
     id="path1" /></svg>
